Coordinates
version=1
nRows=17
nColumns=36
inDegrees=yes

Units are S.I. units (second, meters, Newtons, ...)
If the header above contains a line with 'inDegrees', this indicates whether rotational values are in degrees (yes) or radians (no).

endheader
time	pelvis_tilt	pelvis_list	pelvis_rotation	pelvis_tx	pelvis_ty	pelvis_tz	hip_flexion_r	hip_adduction_r	hip_rotation_r	knee_angle_r	knee_angle_r_beta	ankle_angle_r	subtalar_angle_r	mtp_angle_r	hip_flexion_l	hip_adduction_l	hip_rotation_l	knee_angle_l	knee_angle_l_beta	ankle_angle_l	subtalar_angle_l	mtp_angle_l	lumbar_extension	lumbar_bending	lumbar_rotation	arm_flex_r	arm_add_r	arm_rot_r	elbow_flex_r	pro_sup_r	arm_flex_l	arm_add_l	arm_rot_l	elbow_flex_l	pro_sup_l
      0.00000000	     -8.88481892	    -10.83053211	     36.52279991	     -1.31230534	      0.95453122	      0.11922548	     36.76447367	     -4.52278507	    -10.71115080	     29.89607631	      0.52178497	     -0.57805485	    -34.18821828	     -7.20937702	     19.52048604	     -7.35872692	     14.15431866	     18.20752315	      0.31778123	     14.15812845	     11.17152567	     -7.20937702	     -7.83702000	      1.74514888	     11.85381612	     17.07420021	     -6.58474022	     -4.52300423	     25.73281277	     97.41341505	     14.12421011	      3.72427368	      8.47904640	     32.52575065	     84.24305362
      0.01694910	     -7.59033342	    -13.12342259	     40.82349064	     -1.32195422	      0.95374628	      0.10432957	     33.55941271	     -2.46011062	    -16.87896021	     28.06446558	      0.48981733	      2.16599033	    -33.81365083	     -7.20499571	     20.35588610	     -9.17298270	     17.88185596	     14.99825579	      0.26176895	     13.00697533	     14.68364749	     -7.20499571	     -6.28192763	      4.87948739	      9.61827866	     15.43585346	     -6.54122508	     -9.18923410	     26.38099254	     96.73345886	     15.08757342	      4.29837204	      8.17200687	     30.23439310	     84.25143092
      0.03389830	     -8.40514271	    -12.94000337	     41.83672877	     -1.33589508	      0.94626070	      0.10155299	     33.56144975	     -1.59402735	    -18.26534877	     28.46306543	      0.49677421	      3.31112409	    -32.79185736	     -7.25671922	     21.65962503	     -8.11564691	     17.34967215	     14.53196082	      0.25363056	     11.64187137	     16.78345275	     -7.25671922	     -5.49280885	      3.62300553	     11.62317024	     13.36129939	     -5.21930537	    -20.72954847	     29.56721537	     93.44971003	     17.85313731	      4.19992788	     11.65592265	     27.42606722	     80.01967959
      0.05084750	     -8.55247152	    -12.35177519	     42.34598353	     -1.33686194	      0.95226754	      0.09681437	     32.76997253	     -0.17328644	    -19.61449895	     29.78664128	      0.51987496	      6.49425711	    -28.94880425	     -7.29655490	     21.37076733	     -7.31765986	     16.66337846	     13.96929438	      0.24381018	     10.32117643	     17.31885761	     -7.29655490	     -5.49138452	      2.60976979	     11.45578781	     13.78515852	     -5.19774170	    -20.24720376	     28.19402432	     92.18112326	     19.70850048	      2.97719633	     13.79590258	     26.25106463	     76.91163922
      0.06779660	     -9.22514138	    -11.99409977	     42.60598184	     -1.34319689	      0.94766527	      0.09640150	     32.36301222	      0.61727337	    -21.26746350	     30.49317945	      0.53220638	     10.10762483	    -23.72320928	     -7.35894970	     22.23269238	     -6.03231551	     15.89961043	     14.86795454	      0.25949476	      9.73352447	     16.94196516	     -7.35894970	     -5.17778761	      1.78810447	     11.43058489	     13.49902441	     -4.94015918	    -21.79288406	     28.74983096	     95.98163534	     21.61837479	      1.65157088	     19.11325400	     25.67330680	     71.06513633
      0.08474580	     -9.17229976	    -11.12407124	     42.74589245	     -1.34430251	      0.95774290	      0.09041043	     30.45854931	      1.46772316	    -22.57895893	     29.96420096	      0.52297396	     11.53508452	    -19.62480744	     -7.37056587	     21.57939426	     -4.90273187	     15.48184614	     14.91564228	      0.26032707	      8.39142198	     16.43862536	     -7.37056587	     -5.80374990	      1.06912478	     10.89870194	     13.55663720	     -4.36778517	    -22.49636125	     28.71135207	     96.34955588	     22.70511502	      1.06817746	     18.80502838	     24.84642848	     70.17234202
      0.10169490	     -9.14208722	    -10.28525738	     42.54851615	     -1.35115631	      0.96122188	      0.08908765	     28.68242954	      2.24865555	    -23.38872753	     28.46480826	      0.49680463	     11.88030271	    -17.26059901	     -7.42067557	     20.87331491	     -3.90291054	     14.57390680	     14.85280892	      0.25923042	      7.17794252	     15.32356490	     -7.42067557	     -6.69503670	      0.49670107	     10.79899905	     13.74065104	     -3.76847316	    -24.69233193	     29.14384333	    100.40319062	     23.94429423	      0.60234605	     20.20116870	     23.97616323	     66.63072113
      0.11864410	     -9.03471884	     -9.36656687	     41.91284582	     -1.35010765	      0.95842358	      0.08441771	     26.43349798	      3.12252732	    -23.63403707	     26.32445283	      0.45944838	     11.66748678	    -16.35260112	     -7.42284332	     19.78064568	     -3.06868550	     13.71346062	     14.44135740	      0.25204924	      6.20431281	     14.13294343	     -7.42284332	     -7.45271411	     -0.11501388	     10.70267401	     14.16583906	     -3.41571685	    -24.57867050	     28.60534990	     99.31251088	     24.56626270	      0.21390424	     19.49108069	     23.20431266	     66.27767055
      0.13559320	     -9.24198908	     -8.56062731	     40.60831203	     -1.35506782	      0.95607427	      0.08423814	     24.67030595	      3.82363487	    -23.56875297	     24.31734329	      0.42441771	     11.26843939	    -16.30005583	     -7.42579192	     19.27137999	     -2.13056917	     12.87854177	     14.50380461	      0.25313914	      5.72347055	     13.08097352	     -7.42579192	     -8.03274412	     -0.80901848	     11.07372510	     14.56021687	     -3.10808350	    -24.59101082	     28.62226612	     99.60730428	     25.13085858	     -0.15698032	     18.81482161	     22.71638058	     66.02305038
      0.15254240	     -9.43479427	     -7.89948722	     39.00201308	     -1.35618748	      0.95360986	      0.07929024	     23.23489946	      4.47637069	    -22.62606606	     22.08569717	      0.38546813	     10.75321552	    -17.16412445	     -7.43406833	     18.68182447	     -1.41305682	     11.87810893	     14.39368051	      0.25121712	      5.80484165	     11.98020646	     -7.43406833	     -8.33473978	     -1.28503731	     11.45880429	     15.06823789	     -2.85966495	    -24.68645247	     28.20888347	    101.29601556	     25.13447095	     -0.28816545	     16.15853359	     22.13796961	     65.42318982
      0.16949150	     -9.68423975	     -7.40382502	     37.00024570	     -1.36061115	      0.95022648	      0.07619361	     22.35836220	      4.87521655	    -21.24305345	     20.40072461	      0.35605981	     10.21113322	    -17.80055473	     -7.43940954	     18.34456312	     -0.73015373	     11.04689909	     14.27117958	      0.24907907	      5.90628209	     10.53881809	     -7.43940954	     -8.51463176	     -1.52283857	     11.95701382	     15.63350215	     -2.81899406	    -24.01540704	     27.93653112	    101.69623913	     24.94671164	     -0.40613330	     13.94716541	     21.81966316	     65.09465595
      0.18644070	     -9.37611627	     -6.72649346	     34.98469378	     -1.35817108	      0.95986707	      0.07049973	     20.48421818	      5.41314402	    -19.61538060	     17.93174757	      0.31296804	      8.97798650	    -18.21625180	     -7.44164101	     17.05813730	     -0.27379511	     10.45769041	     13.61658963	      0.23765432	      5.68445533	      9.69328983	     -7.44164101	     -9.13995322	     -1.57993225	     12.33245654	     16.24523570	     -2.73046883	    -23.31880356	     27.30916904	    101.56706557	     24.46181044	     -0.59963603	     12.20492174	     21.32644733	     65.04643776
      0.20338980	     -9.16794132	     -6.35213135	     32.97330255	     -1.36187761	      0.95336187	      0.06819104	     19.35743441	      5.79235278	    -17.88906246	     16.30277018	      0.28453702	      8.09837622	    -18.76724158	     -7.44878328	     16.23684477	      0.01327877	      9.79501359	     13.20364444	      0.23044707	      6.09208049	      9.32524296	     -7.44878328	     -9.44043379	     -1.39432660	     12.51439630	     17.03158844	     -2.84152972	    -22.13405567	     26.58643778	    103.71777277	     23.58777699	     -0.49173636	      7.57992322	     21.48400330	     66.03305603
      0.22033900	     -8.58253000	     -5.75827291	     31.08970708	     -1.36004663	      0.95853874	      0.06232101	     17.63597840	      5.93001492	    -16.49310857	     14.96592123	      0.26120460	      7.03495094	    -18.99233606	     -7.45047082	     14.68627884	      0.35081140	      9.47964679	     12.48287077	      0.21786720	      5.98586236	      9.00287167	     -7.45047082	    -10.08468445	     -1.23767851	     12.95318278	     17.50104352	     -2.91273219	    -21.76184559	     26.02552070	    103.95770583	     23.02118346	     -0.54041652	      6.68000052	     20.74047948	     66.35252632
      0.23728810	     -8.09445066	     -5.36491875	     29.37653469	     -1.36054785	      0.96250360	      0.06192600	     16.30624724	      6.20006228	    -14.92307324	     13.50078243	      0.23563311	      6.03459534	    -19.28034844	     -7.46217030	     13.40096834	      0.45961600	      9.06294929	     11.98267493	      0.20913713	      5.95869138	      8.39210290	     -7.46217030	    -10.51322592	     -1.01236405	     12.78088745	     18.38275898	     -3.09890522	    -18.98046675	     24.75133595	    104.72205783	     21.97765958	     -0.38823155	      1.16618888	     20.64092119	     69.23833631
      0.25423730	     -7.27972933	     -4.84397068	     27.81637886	     -1.35756152	      0.96460832	      0.05811932	     14.62032816	      6.36180958	    -13.74575393	     12.34961161	      0.21554138	      5.18601075	    -19.13415067	     -7.46407646	     11.58328950	      0.47206476	      8.56241978	     11.27182271	      0.19673042	      5.70677598	      7.91137196	     -7.46407646	    -11.20176197	     -0.86030211	     13.13901155	     18.79392417	     -3.07320401	    -18.75068234	     24.16579092	    104.17214894	     21.42061072	     -0.48102882	      0.77336105	     19.80598744	     69.34940331
      0.27118640	     -6.59760566	     -4.40408999	     26.31338202	     -1.35939355	      0.96247831	      0.05745130	     13.30376724	      6.49410336	    -12.46206750	     11.39199780	      0.19882787	      4.65386100	    -19.02750061	     -7.46522264	     10.01566828	      0.49773659	      8.17817444	     10.66835598	      0.18619794	      5.70315758	      6.86473987	     -7.46522264	    -11.87202867	     -0.80378335	     13.42569505	     19.22139637	     -3.13689139	    -17.97780321	     23.82012856	    104.40685436	     20.90088662	     -0.57646578	     -0.01465186	     19.31131590	     69.89218169
